<svg xmlns="http://www.w3.org/2000/svg" viewBox="0 0 500 500"><defs><style>.a{fill:#c62828;}.b{fill:#1976d2;}.c{fill:#e53935;}.d{fill:#42a5f5;}</style></defs><path class="a" d="M416.2,384.3,388.6,217.1c-1.7-9.3-4.2-17-7.7-22.9a32.6,32.6,0,0,0-15.3-13.5c-6.6-3-15.6-4.5-26.9-4.5q-5.7,0-12.3.6a55.6,55.6,0,0,0-10.6,1.6L324,163a153.7,153.7,0,0,1,2.4,15.9,190.4,190.4,0,0,1,.9,19.2V384.3H263.8V191.7c0-4.8-.1-10.9-.2-18.3s-.4-14.7-.7-21.9a105.9,105.9,0,0,0-2-17.2l.7-4.3a263.5,263.5,0,0,1,31.9-5.1,323.3,323.3,0,0,1,32.7-1.8,261.7,261.7,0,0,1,47.3,4c14.1,2.6,26.4,7.3,36.8,14s19.1,16,26,28,12,27.2,15.1,45.9l28.7,169.3Zm-118.3-66v-51H434.2v51Z"/><path class="b" d="M63,384.3V126h50.9L242,255.5v83.6L108.6,204.2l18.2-7.5V384.3Zm157.8,0V126h63.5V384.3Z"/><polyline class="a" points="19.9 115.7 216.2 260.7 196.1 209.1"/><polyline class="c" points="19.9 115.7 216.2 260.7 160.4 256.6"/><polyline class="d" points="383.8 384.3 187.5 239.3 207.6 290.9"/><polyline class="b" points="383.8 384.3 187.5 239.3 243.3 243.4"/></svg>