<svg xmlns="http://www.w3.org/2000/svg" viewBox="0 0 1413.7 500"><defs><style>.a{fill:#1976d2;}.b{fill:#e3f2fd;stroke:#1976d2;stroke-miterlimit:10;stroke-width:26.84px;}.c{fill:#c62828;}.d{fill:#e53935;}.e{fill:#42a5f5;}</style></defs><path class="a" d="M81.8,352.8V159.6h38.1l95.8,96.9V319L115.9,218.1l13.6-5.6V352.8Zm118.1,0V159.6h47.5V352.8Z"/><circle class="b" cx="350.1" cy="270.8" r="76"/><polyline class="c" points="269.4 200.8 354.4 275.6 347.1 250.7"/><polyline class="d" points="269.4 200.8 354.4 275.6 328.8 271.6"/><polyline class="e" points="428.5 340.8 343.5 266 350.8 290.9"/><polyline class="a" points="428.5 340.8 343.5 266 369.1 270.1"/><path class="a" d="M463.5,352.8V258.4c0-3.6-.1-8.2-.1-13.9s-.4-11.1-.8-16.6a110,110,0,0,0-1.8-13l.8-2.2a152.2,152.2,0,0,1,17.6-4.8c6.5-1.4,13.8-2.6,21.7-3.6a211.6,211.6,0,0,1,26.2-1.5l10.9.3a116,116,0,0,1,14.6,1.6v37h-3a88.7,88.7,0,0,0-9.7-1.7,73.7,73.7,0,0,0-10.4-.7,87.6,87.6,0,0,0-16.6,1.5,61.2,61.2,0,0,0-13.2,3.9l6.5-10.5c3,4.3,4.5,13.4,4.5,27.4v91.2Z"/><path class="a" d="M570.8,242.5V206H680.6v36.5ZM660,355c-13.1,0-24.5-1.8-34.3-5.3A43.8,43.8,0,0,1,602.9,332c-5.4-8.3-8.2-19.5-8.2-33.6V169.3H642V294.9c0,8.2,2,14.1,6,17.5s10.3,5.3,18.9,5.3a41,41,0,0,0,9.4-1.1,56.6,56.6,0,0,0,8.1-2.4h2.9v37A68.9,68.9,0,0,1,675,354,94.9,94.9,0,0,1,660,355Z"/><path class="a" d="M713.6,352.8V193.4c0-3.6,0-8.1-.1-13.5s-.4-10.9-.8-16.1a93.3,93.3,0,0,0-1.8-12.8l.9-2.1h49.1v76.7l-10-15.5a101.5,101.5,0,0,1,17.4-5.8,93.7,93.7,0,0,1,22.1-2.3,86.3,86.3,0,0,1,26.6,3.9,53.5,53.5,0,0,1,20.5,11.9,54.1,54.1,0,0,1,13.1,20.8c3.2,8.5,4.7,18.7,4.7,30.5v83.7H808.1V270.2c0-7.9-1.2-14-3.7-18.4a21.7,21.7,0,0,0-10.5-9.4,40.7,40.7,0,0,0-15.9-2.8,55.1,55.1,0,0,0-9.9,1l-10,1.9-6.1,1.1,8.9-20.4V352.8Z"/><path class="c" d="M1007.6,352.8l-20.7-125a54.2,54.2,0,0,0-5.7-17.2,24.3,24.3,0,0,0-11.5-10.1q-7.5-3.3-20.1-3.3c-2.8,0-5.9.1-9.2.4a35.7,35.7,0,0,0-8,1.2l6.2-11.6q1,5.4,1.8,12c.4,4.4.6,9.2.6,14.3V352.8H893.5V208.7c0-3.6,0-8.1-.1-13.7s-.3-11-.6-16.4a75.3,75.3,0,0,0-1.4-12.8l.5-3.3a207.9,207.9,0,0,1,23.9-3.7,241.4,241.4,0,0,1,24.4-1.4,190.1,190.1,0,0,1,35.4,3,77.1,77.1,0,0,1,27.6,10.5,61.2,61.2,0,0,1,19.4,20.9c5.2,8.9,9,20.4,11.3,34.4l21.5,126.6ZM919,303.5V265.3h102v38.2Z"/><path class="c" d="M1084.9,352.8V258.4c0-3.6-.1-8.2-.1-13.9s-.4-11.1-.9-16.6a94.7,94.7,0,0,0-1.7-13l.8-2.2a152.2,152.2,0,0,1,17.6-4.8c6.5-1.4,13.8-2.6,21.7-3.6a211.6,211.6,0,0,1,26.2-1.5l10.9.3a116,116,0,0,1,14.6,1.6v37h-3a86.5,86.5,0,0,0-9.8-1.7,71.3,71.3,0,0,0-10.3-.7,87.6,87.6,0,0,0-16.6,1.5,61.2,61.2,0,0,0-13.2,3.9l6.5-10.5c3,4.3,4.5,13.4,4.5,27.4v91.2Z"/><path class="c" d="M1248.6,352.8h-47.2V193.4c0-3.6-.1-8.1-.2-13.5s-.3-10.9-.8-16.1a95.6,95.6,0,0,0-1.7-12.8l.8-2.1h49.1Zm-8.3-77,58.2-69.8h49.7v3.2a63.9,63.9,0,0,0-6.7,6.5c-2.7,2.9-5.4,5.9-8.2,9.2s-5.4,6.4-7.9,9.3l-49.2,54,.3-30.1,52.1,68.2c3.4,4.4,7.2,8.9,11.4,13.4a109.9,109.9,0,0,0,10.1,9.9v3.2h-53.7Z"/></svg>